<?xml version="1.0" encoding="UTF-8" standalone="no"?>
<!-- Uploaded to: SVG Repo, www.svgrepo.com, Generator: SVG Repo Mixer Tools -->

<svg
   width="800px"
   height="800px"
   viewBox="0 0 32 32"
   version="1.1"
   id="svg11"
   sodipodi:docname="search.svg"
   inkscape:version="1.2.2 (b0a8486541, 2022-12-01)"
   xmlns:inkscape="http://www.inkscape.org/namespaces/inkscape"
   xmlns:sodipodi="http://sodipodi.sourceforge.net/DTD/sodipodi-0.dtd"
   xmlns="http://www.w3.org/2000/svg"
   xmlns:svg="http://www.w3.org/2000/svg"
   xmlns:sketch="http://www.bohemiancoding.com/sketch/ns">
  <sodipodi:namedview
     id="namedview13"
     pagecolor="#ffffff"
     bordercolor="#000000"
     borderopacity="0.25"
     inkscape:showpageshadow="2"
     inkscape:pageopacity="0.0"
     inkscape:pagecheckerboard="0"
     inkscape:deskcolor="#d1d1d1"
     showgrid="false"
     inkscape:zoom="1.0475"
     inkscape:cx="400"
     inkscape:cy="400"
     inkscape:window-width="1920"
     inkscape:window-height="1008"
     inkscape:window-x="1920"
     inkscape:window-y="0"
     inkscape:window-maximized="1"
     inkscape:current-layer="svg11" />
  <title
     id="title2">search</title>
  <desc
     id="desc4">Created with Sketch Beta.</desc>
  <defs
     id="defs6" />
  <g
     id="Page-1"
     stroke="none"
     stroke-width="1"
     fill="none"
     fill-rule="evenodd"
     sketch:type="MSPage">
    <g
       id="Icon-Set"
       sketch:type="MSLayerGroup"
       transform="translate(-256.000000, -1139.000000)"
       fill="#000000">
      <path
         d="M269.46,1163.45 C263.17,1163.45 258.071,1158.44 258.071,1152.25 C258.071,1146.06 263.17,1141.04 269.46,1141.04 C275.75,1141.04 280.85,1146.06 280.85,1152.25 C280.85,1158.44 275.75,1163.45 269.46,1163.45 L269.46,1163.45 Z M287.688,1169.25 L279.429,1161.12 C281.591,1158.77 282.92,1155.67 282.92,1152.25 C282.92,1144.93 276.894,1139 269.46,1139 C262.026,1139 256,1144.93 256,1152.25 C256,1159.56 262.026,1165.49 269.46,1165.49 C272.672,1165.49 275.618,1164.38 277.932,1162.53 L286.224,1170.69 C286.629,1171.09 287.284,1171.09 287.688,1170.69 C288.093,1170.3 288.093,1169.65 287.688,1169.25 L287.688,1169.25 Z"
         id="search"
         sketch:type="MSShapeGroup" />
    </g>
  </g>
  <path
     style="fill:#ffffff;stroke-width:0.954654"
     d="M 332.61299,-0.37291169 C 252.4336,-0.20384277 172.9124,30.268161 112.73857,83.143226 88.529096,105.2312 66.137484,129.59718 49.093966,157.72384 19.917573,204.15382 3.1103651,258.20508 -0.02365776,312.8914 -1.273811,344.30996 0.68578482,375.95181 8.2079112,406.56033 28.931697,496.44123 90.027933,575.44209 170.65737,619.84898 c 54.32099,30.31905 117.1023,45.49327 179.30017,42.30439 44.5591,-0.81256 88.73297,-12.00972 129.14033,-30.59 24.44815,-11.52837 47.98963,-25.31337 68.95366,-42.45053 67.81465,66.24699 134.77488,133.39334 203.27438,198.93845 5.93933,5.75137 12.48143,12.32884 21.4217,12.04194 14.39425,1.03502 28.15379,-11.44992 27.34562,-26.11128 0.75225,-8.18599 -4.40821,-14.86037 -10.12455,-20.05146 C 722.94978,686.29681 654.48297,620.10664 586.77282,553.16229 618.01821,517.66338 643.50115,476.63602 657.7174,431.33577 686.59858,343.99756 675.35121,244.78934 628.63776,165.66415 588.92535,98.064621 524.93727,45.022033 450.89695,19.073466 413.07434,5.4160324 372.79061,-0.91993069 332.61299,-0.37291169 Z m 3.66013,52.11440969 c 76.37695,-0.188594 152.75831,31.059308 205.47579,86.655892 36.96214,37.31507 62.43062,85.52617 73.10789,136.90467 6.368,27.75194 5.4776,56.59727 4.30798,84.8821 -6.99479,65.27838 -37.91367,127.7253 -86.10429,172.49409 -38.03406,36.19346 -86.72133,60.94084 -137.98292,71.90297 -26.58471,5.44788 -53.9537,7.04941 -81.02227,5.09811 C 229.85563,603.53005 149.19218,558.10016 101.50798,488.19774 75.701641,450.61218 59.010555,406.60523 54.096435,361.28431 52.305564,329.4471 51.849364,296.92632 60.363216,265.95556 78.35808,190.10276 130.57574,123.58681 199.05029,86.691048 240.94317,63.761812 288.52996,51.478686 336.27312,51.741498 Z"
     id="path257"
     transform="scale(0.04)" />
</svg>
